<?xml version="1.0" encoding="UTF-8"?>
<svg xmlns="http://www.w3.org/2000/svg" xmlns:xlink="http://www.w3.org/1999/xlink" viewBox="0 0 601.818 548.929">
  <defs>
    <style>
      .cls-1 {
        stroke-dasharray: 0 0 0 0 4.006 2.67 .167 2.67;
      }

      .cls-1, .cls-2, .cls-3, .cls-4, .cls-5, .cls-6, .cls-7, .cls-8, .cls-9, .cls-10, .cls-11, .cls-12, .cls-13, .cls-14 {
        fill: none;
      }

      .cls-1, .cls-2, .cls-3, .cls-5, .cls-6, .cls-7, .cls-8, .cls-9, .cls-10, .cls-11, .cls-13 {
        stroke: #000;
      }

      .cls-1, .cls-2, .cls-5, .cls-6, .cls-7, .cls-8, .cls-9, .cls-10, .cls-11, .cls-13, .cls-14 {
        stroke-miterlimit: 10;
      }

      .cls-1, .cls-8, .cls-12 {
        stroke-linecap: round;
      }

      .cls-1, .cls-14 {
        stroke-width: .668px;
      }

      .cls-2, .cls-3 {
        stroke-dasharray: 0 0 1.335 1.335;
      }

      .cls-2, .cls-3, .cls-5, .cls-8, .cls-11 {
        stroke-width: .334px;
      }

      .cls-3, .cls-12 {
        stroke-linejoin: round;
      }

      .cls-4, .cls-15, .cls-16, .cls-17, .cls-18 {
        stroke-width: 0px;
      }

      .cls-6 {
        stroke-dasharray: 0 0 .668 .334;
      }

      .cls-6, .cls-10, .cls-12, .cls-13 {
        stroke-width: .167px;
      }

      .cls-19, .cls-20 {
        mix-blend-mode: multiply;
      }

      .cls-7 {
        stroke-width: 2.337px;
      }

      .cls-21 {
        clip-path: url(#clippath-4);
      }

      .cls-22 {
        clip-path: url(#clippath-3);
      }

      .cls-23 {
        clip-path: url(#clippath-2);
      }

      .cls-24 {
        clip-path: url(#clippath-5);
      }

      .cls-9 {
        stroke-width: 2.003px;
      }

      .cls-10 {
        stroke-dasharray: 0 0 .668 1.335;
      }

      .cls-11 {
        stroke-dasharray: 0 0 3.338 3.338;
      }

      .cls-12, .cls-14 {
        stroke: #231f20;
      }

      .cls-25 {
        isolation: isolate;
      }

      .cls-20 {
        opacity: .51;
      }

      .cls-16 {
        fill: #231f20;
      }

      .cls-17 {
        fill: #cecfcf;
      }

      .cls-18 {
        fill: #fff;
      }
    </style>
    <clipPath id="clippath-2">
      <rect class="cls-4" x="321.927" y="84.465" width="227.84" height="346.804"/>
    </clipPath>
    <clipPath id="clippath-3">
      <rect class="cls-4" x="321.927" y="84.465" width="227.84" height="346.804"/>
    </clipPath>
    <clipPath id="clippath-4">
      <rect class="cls-4" x="25.942" y="25.583" width="519.013" height="418.401"/>
    </clipPath>
    <clipPath id="clippath-5">
      <rect class="cls-4" x="25.942" y="25.582" width="519.014" height="418.402"/>
    </clipPath>
  </defs>
  <g class="cls-25">
    <g id="Layer_1" data-name="Layer 1">
      <g>
        <g>
          <path class="cls-10" d="M42.782,181.562s5.29,20.764,20.14,30.164c4.153,2.625,10.055,5.832,16.868,9.629.23.126.46.256.69.386,21.272,11.868,50.993,29.365,64.216,52.729.017.03.035.061.052.091,21.654,38.348,8.18,73.407,2.109,93.303-.187.612-.369,1.206-.538,1.788-.087.304-.178.603-.269.903-10.042,33.891-18.712,50.004-3.111,75.199"/>
          <path class="cls-10" d="M124.173,455.483c-2.903-10.541-8.336-20.378-16.798-27.317-12.159-9.968-25.898-17.718-39.359-25.746-15.709-9.369-31.405-19.397-43.321-33.275-5.949-6.939-10.818-14.897-13.93-23.507-3.268-9.03-3.224-17.518-3.441-26.9-.412-17.636,6.344-34.078,11.048-50.798,9.738-34.638,18.169-51.093,2.131-76.318"/>
          <path class="cls-10" d="M39.397,182.335s5.29,21.48,20.144,30.88c4.648,2.942,11.686,6.544,19.823,10.853.208.108.421.221.634.334,21.806,11.56,51.18,28.133,63.912,50.629,20.556,36.317,7.394,70.478.651,90.956-.295.898-.577,1.771-.846,2.617-.278.877-.538,1.718-.777,2.534-10.154,34.516-18.786,50.867-3.046,76.284"/>
          <path class="cls-10" d="M120.797,456.295c-6.349-22.305-27.274-36.525-46.198-48.06-17.653-10.758-36.352-20.769-49.796-36.469-11.565-13.504-18.308-30.888-19.506-48.58-1.258-18.53,4.765-36.144,9.707-53.723,9.738-34.633,18.508-50.911,2.469-76.136"/>
          <path class="cls-10" d="M243.982,205.056c-3.754-7.507-8.132-14.624-12.953-21.459-.395-.564-.794-1.128-1.202-1.688-13.301-18.469-29.773-34.881-45.89-51.249-10.237-10.402-20.413-20.89-29.738-32.125-8.57-10.328-14.711-23.576-13.114-39.12"/>
          <path class="cls-10" d="M252.596,226.628c-2.235-7.451-5.099-14.516-8.458-21.263"/>
          <path class="cls-10" d="M226.854,434.845c-7.095-6.453-5.559-23.281-4.808-31.895,2.604-29.804,17.848-55.48,27.603-83.123.443-1.258.877-2.521,1.298-3.788.716-2.161,1.393-4.331,2.022-6.522,7.572-26.289,7.629-54.69.174-81.014-.113-.404-.23-.803-.351-1.202"/>
          <path class="cls-10" d="M222.514,434.88c-7.095-6.453-5.559-23.281-4.808-31.891,2.708-31.01,20.947-56.721,30.875-85.54.43-1.245.842-2.5,1.241-3.758.33-1.05.651-2.109.955-3.168,7.572-26.284,9.473-56.899,2.014-83.223-.061-.226-.13-.447-.195-.673-2.178-7.52-5.042-14.572-8.458-21.263-.052-.104-.1-.204-.156-.308-3.771-7.377-8.206-14.312-13.101-20.938-.395-.538-.794-1.076-1.198-1.61-13.83-18.33-31.088-34.373-47.504-51.054-10.232-10.402-22.995-21.645-32.32-32.885-8.57-10.328-14.711-23.576-13.114-39.116"/>
          <path class="cls-10" d="M79.338,269.033c4.522,26.896,20.508,54.491,38.713,74.804,7.976,8.9,17.297,14.728,26.51,22.149.564.451,1.128.911,1.692,1.38.2.165.404.334.603.499,5.437,4.522,10.849,9.078,16.043,13.882,12.085,11.165,22.665,23.989,30.606,38.409,1.888,3.433,3.563,6.987,4.895,10.675,1.298,3.602,1.28,7.594.764,11.413"/>
          <path class="cls-10" d="M112.682,68.211c8.137,13.266,8.241,27.846,4.873,40.861-3.671,14.155-10.098,27.79-14.958,41.598-8.193,23.29-17.584,46.91-22.118,71.072-.169.885-.33,1.771-.482,2.66-2.391,13.86-3.12,27.903-1.046,42.167"/>
          <path class="cls-10" d="M195.228,442.317c.516-3.819.538-7.811-.764-11.408-1.332-3.689-3.007-7.247-4.895-10.675-7.941-14.424-18.521-27.243-30.606-38.413-4.196-3.879-8.531-7.598-12.914-11.265-.777-.655-1.554-1.302-2.335-1.953-.464-.386-.933-.777-1.397-1.163-9.755-8.097-19.519-16.256-27.985-25.703-18.204-20.317-30.472-45.808-34.994-72.704-.139-.825-.269-1.645-.386-2.465-2.131-14.403-1.666-28.549.412-42.501.135-.907.273-1.81.425-2.712,3.914-23.902,12.402-47.253,20.543-70.386,4.856-13.808,9.616-27.664,13.287-41.824,3.367-13.01,3.263-27.595-4.873-40.856"/>
          <path class="cls-10" d="M374.57,227.47c0-16.794-2.022-33.549-8.926-54.847-.087-.273-.178-.547-.269-.824-6.548-19.949-17.358-43.898-34.742-75.542-30.307-55.163-15.605-77.178-15.605-77.178"/>
          <path class="cls-10" d="M314.75,431.065c-8.796-35.093-.026-42.245,19.632-75.407,5.607-9.456,11.148-20.226,16.247-31.635.304-.677.603-1.358.903-2.04,12.346-28.102,21.862-59.768,22.843-85.015.017-.391.03-.777.039-1.163.1-2.756.156-5.485.156-8.215"/>
          <path class="cls-10" d="M288.327,18.368s13.552,18.148-16.369,73.515c-21.958,40.644-34.46,68.625-40.93,91.715-.052.174-.1.347-.148.521-4.782,17.245-6.188,31.778-5.663,46.862.026.655.052,1.311.082,1.97,1.102,24.023,11.699,53.784,24.522,80.74.369.785.746,1.567,1.124,2.348,6.166,12.758,12.788,24.826,19.085,35.276,19.892,33.019,27.833,46.628,19.415,79.039"/>
          <path class="cls-10" d="M311.279,431.1c-8.796-35.093-.026-42.249,19.632-75.411,6.21-10.471,12.693-22.717,18.707-35.714.291-.625.582-1.254.868-1.883,12.571-27.521,22.886-58.149,23.928-82.285.009-.143.017-.286.022-.425.1-2.621.148-5.212.135-7.789v-.122c-.104-16.52-2.751-32.568-9.998-52.903-.087-.247-.174-.499-.269-.751-7.243-20.122-18.972-44.454-37.142-77.529-30.307-55.164-15.605-77.178-15.605-77.178"/>
          <path class="cls-10" d="M284.422,18.415s13.552,18.148-16.369,73.519c-21.415,39.641-32.681,67.227-38.226,89.975-.048.2-.1.399-.143.599-4.318,17.952-5.073,32.911-4.465,48.472.026.655.052,1.311.082,1.97,1.15,25.134,10.814,56.574,23.281,84.498.351.798.707,1.588,1.067,2.378,5.181,11.378,10.801,22.114,16.477,31.535,19.892,33.019,27.833,46.628,19.415,79.039"/>
          <path class="cls-10" d="M476.448,244.585c.069-.66.13-1.324.187-1.983.534-5.988.673-12.02.503-18.048-.022-.638-.043-1.271-.065-1.909-2.322-58.262-33.562-116.033-32.09-135.509,1.536-20.369,5.993-33.253,5.993-33.253"/>
          <path class="cls-10" d="M395.551,440.434c-2.109-27.443-.143-35.51,12.246-53.007,3.979-5.62,11.63-15.084,20.452-27.612.425-.608.851-1.219,1.284-1.84,18.005-25.872,40.279-64.068,46.289-108.205"/>
          <path class="cls-10" d="M447.504,53.921s-4.457,12.88-5.989,33.253c-1.471,19.489,32.49,77.286,35.423,135.574.03.634.056,1.267.078,1.896.234,5.997.13,11.994-.382,17.957-.056.66-.117,1.324-.187,1.983-.065.664-.139,1.324-.217,1.983-.126,1.072-.26,2.139-.408,3.203-5.884,42.705-28.306,79.859-46.975,105.666-.425.59-.851,1.172-1.271,1.744-10.133,13.865-18.994,24.275-23.251,30.285-12.389,17.497-14.355,25.564-12.246,53.007"/>
          <path class="cls-10" d="M364.572,174.567c.356-.651.712-1.298,1.072-1.944,22.418-40.305,53.788-72.63,57.047-87.801,4.283-19.975,3.654-33.588,3.654-33.588"/>
          <path class="cls-10" d="M370.23,437.687c9.781-25.729,10.176-34.026,3.237-54.309-3.55-10.371-14.06-32.828-21.936-61.395-.356-1.284-.703-2.582-1.046-3.893"/>
          <path class="cls-10" d="M344.866,226.997c3.406-18.603,10.688-36.547,19.437-53.18.356-.673.712-1.35,1.072-2.018,21.493-40.079,51.032-72.296,54.27-87.371,4.283-19.975,3.658-33.588,3.658-33.588"/>
          <path class="cls-10" d="M344.115,231.501c.056-.373.113-.751.174-1.124"/>
          <path class="cls-10" d="M367.184,437.292c9.786-25.729,10.18-34.026,3.242-54.313-3.454-10.098-12.762-31.552-19.797-58.956-.347-1.332-.681-2.682-1.011-4.049-6.258-25.742-10.254-56.296-5.659-87.441"/>
          <path class="cls-10" d="M578.087,320.79c1.619-10.089,1.302-20.56-.204-30.919-4.739-32.75-21.29-64.411-25.872-79.547-6.106-20.144-1.154-28.484,2.356-38.812"/>
          <path class="cls-10" d="M471.106,456.121c-.529-15.592,4.682-25.308,29.248-39.732,24.561-14.429,69.939-51.9,77.499-94.197.082-.456.156-.911.23-1.367"/>
          <path class="cls-10" d="M427.946,280.984c-8.479,22.531-5.515,50.247.903,74.452.221.851.451,1.697.686,2.539,4.726,17.019,11.048,32.108,16.104,42.154,12.654,25.126,11.764,36.031,2.968,48.81"/>
          <path class="cls-10" d="M428.401,279.808c-.13.325-.256.655-.382.985"/>
          <path class="cls-10" d="M532.089,166.344c-2.625,10.51-3.715,19.25-19.575,32.885-6.948,5.971-20.717,14.411-35.375,25.325-.039.03-.078.061-.122.091-18.265,13.609-37.888,31.053-47.422,52.343"/>
          <path class="cls-10" d="M467.6,454.872c-.534-15.592,4.678-25.312,29.244-39.737,24.566-14.424,73.68-52.009,81.239-94.31.004-.009.004-.022.004-.035,1.805-10.12,1.458-20.582-.204-30.919-5.272-32.867-23.78-64.48-28.424-79.799-6.101-20.148-2.109-29.487,1.402-39.815"/>
          <path class="cls-10" d="M445.581,447.694c8.796-12.784,9.681-23.689-2.968-48.815-4.786-9.512-10.28-23.368-14.364-39.064-.23-.872-.456-1.749-.673-2.634-6.041-24.444-8.479-52.898.369-76.197.022-.065.048-.13.074-.191.122-.33.252-.655.382-.985.13-.325.265-.655.399-.981.256-.616.521-1.228.794-1.84,9.803-22.036,29.43-40.21,47.344-54.239.048-.039.091-.074.134-.104,13.296-10.406,25.629-18.521,32.273-24.232,15.865-13.635,17.093-22.804,19.719-33.319"/>
          <path class="cls-10" d="M113.398,64.774l.894,6.878s4.072,9.245,4.477,9.504c.404.26,5.829,13.495,6.154,13.603s7.703,6.184,7.703,6.184l4.132-1.736,2.811-14.537v-22.674l-1.632-3.069"/>
        </g>
        <g>
          <rect class="cls-8" x="287.7" y="61.888" width="24.601" height="324.593"/>
          <polygon class="cls-8" points="320.304 380.464 300.379 385.803 280.454 380.464 266.407 432.885 266.407 441.766 299.546 441.766 300.342 441.978 300.379 441.842 300.415 441.978 301.211 441.766 334.35 441.766 334.35 432.885 320.304 380.464"/>
          <polygon class="cls-8" points="319.507 68.648 299.582 63.309 279.657 68.648 265.61 16.226 265.61 7.346 298.749 7.346 299.546 7.133 299.582 7.269 299.619 7.133 300.414 7.346 333.553 7.346 333.553 16.226 319.507 68.648"/>
          <rect class="cls-8" x="68.99" y="215.779" width="24.602" height="208.713" transform="translate(-111.347 51.834) rotate(-21.43)"/>
          <polygon class="cls-8" points="133.32 407.116 119.919 417.433 103.079 418.986 109.308 466.2 112.17 473.488 137.318 463.618 137.991 463.556 137.975 463.434 138.046 463.534 138.582 463.122 163.73 453.251 160.869 445.963 133.32 407.116"/>
          <polygon class="cls-8" points="30.627 234.703 44.027 224.385 60.868 222.834 54.638 175.619 51.777 168.331 26.629 178.201 25.956 178.263 25.972 178.385 25.901 178.284 25.365 178.697 .216 188.567 3.078 195.857 30.627 234.703"/>
          <rect class="cls-8" x="155.262" y="105.993" width="24.602" height="294.064" transform="translate(-52.664 44.221) rotate(-13.011)"/>
          <polygon class="cls-8" points="218.539 383.463 200.422 393.565 179.711 392.435 178.766 450.739 180.924 460.08 213.213 452.619 214.041 452.664 214.042 452.513 214.111 452.648 214.835 452.244 247.123 444.785 244.965 435.443 218.539 383.463"/>
          <polygon class="cls-8" points="117.318 122.556 135.434 112.454 156.145 113.585 157.09 55.28 154.933 45.94 122.644 53.4 121.817 53.355 121.814 53.506 121.745 53.371 121.022 53.775 88.733 61.235 90.892 70.576 117.318 122.556"/>
          <rect class="cls-8" x="257.312" y="232.113" width="304.118" height="24.602" transform="translate(108.817 614.536) rotate(-81.761)"/>
          <polygon class="cls-8" points="408.473 390.609 387.988 393.038 369.034 384.898 347.619 434.766 346.346 443.553 379.143 448.303 379.901 448.628 379.956 448.499 379.973 448.638 380.791 448.541 413.588 453.291 414.86 444.503 408.473 390.609"/>
          <polygon class="cls-8" points="449.5 103.41 430.545 95.271 410.061 97.699 403.672 43.805 404.945 35.017 437.742 39.766 438.56 39.67 438.578 39.809 438.632 39.68 439.39 40.005 472.187 44.755 470.914 53.542 449.5 103.41"/>
          <rect class="cls-8" x="384.158" y="296.668" width="232.622" height="24.602" transform="translate(63.526 702.685) rotate(-73.711)"/>
          <polygon class="cls-8" points="486.009 420.418 468.452 419.875 453.367 410.879 429.735 449.007 427.682 456.035 454.827 463.968 455.43 464.327 455.491 464.229 455.489 464.345 456.191 464.367 483.336 472.3 485.389 465.272 486.009 420.418"/>
          <polygon class="cls-8" points="513.8 201.489 531.356 202.033 546.442 211.028 570.073 172.899 572.127 165.871 544.982 157.939 544.379 157.579 544.318 157.678 544.319 157.562 543.618 157.54 516.473 149.608 514.419 156.636 513.8 201.489"/>
        </g>
        <path class="cls-15" d="M270.267,327.051l-.621.008c-.043-.642-.564-1.157-1.212-1.18l-.007-.625c0-.039-.031-.064-.066-.064-.035,0-.064.027-.064.066l.007.625c-.646.038-1.156.564-1.179,1.207l-.625.007c-.039,0-.064.031-.064.066,0,.035.027.065.066.064l.625-.007c.037.646.56,1.156,1.206,1.179l.008.629c0,.035.031.065.066.064.035,0,.064-.031.064-.066l-.008-.629c.647-.037,1.157-.56,1.185-1.206l.621-.008c.039,0,.064-.03.064-.065,0-.035-.027-.065-.066-.065M268.306,326.01l.012,1.063-1.063.012c.024-.573.479-1.038,1.051-1.075M268.462,328.265l-.012-1.063,1.063-.012c-.024.574-.479,1.039-1.051,1.075"/>
        <g>
          <path class="cls-15" d="M273.47,326.782l.004.289-.604.007.007.604-.288.003-.007-.604-.601.008-.004-.289.601-.008-.007-.601.288-.003.007.601.604-.007Z"/>
          <path class="cls-15" d="M274.586,325.701l1.517-.018.003.288-.86,2.15-.337.004.854-2.134-1.173.014-.003-.305Z"/>
          <path class="cls-15" d="M276.411,327.752l-.216.846-.261.003.129-.845.348-.004Z"/>
          <path class="cls-15" d="M278.294,327.789c-.162.231-.391.348-.687.352-.297.003-.528-.108-.695-.336-.167-.227-.253-.531-.257-.913-.005-.382.074-.688.235-.919.163-.23.391-.349.688-.352.296-.004.528.109.694.336.167.227.253.531.258.913.004.382-.075.688-.236.919ZM277.145,327.583c.108.164.261.244.458.242.196-.002.348-.086.453-.253.105-.165.157-.397.154-.698-.004-.301-.061-.534-.17-.699-.109-.162-.263-.243-.459-.241-.197.002-.348.086-.452.251s-.155.399-.151.703c.003.301.059.532.167.695Z"/>
          <path class="cls-15" d="M280.479,327.764c-.162.231-.391.349-.687.352-.297.004-.528-.108-.695-.336-.167-.227-.252-.531-.256-.913-.005-.382.073-.688.234-.919.163-.23.391-.348.688-.352.296-.003.528.109.694.336.167.227.253.531.258.913.004.382-.075.688-.236.919ZM279.331,327.559c.108.163.261.244.458.241.196-.002.348-.086.453-.252.105-.165.157-.398.154-.699-.004-.301-.061-.533-.17-.698-.109-.163-.263-.244-.459-.242-.197.003-.348.086-.452.252-.104.165-.155.398-.151.702.003.301.059.533.167.696Z"/>
        </g>
        <path class="cls-15" d="M456.213,342.933l-.621.008c-.043-.642-.564-1.157-1.212-1.18l-.007-.624c0-.039-.031-.065-.066-.065-.035,0-.064.027-.064.066l.007.625c-.646.038-1.156.564-1.179,1.207l-.625.007c-.039,0-.064.031-.064.066,0,.035.027.065.066.064l.625-.007c.037.646.56,1.156,1.206,1.179l.008.629c0,.035.031.065.066.064.035,0,.064-.031.064-.066l-.008-.629c.647-.037,1.157-.56,1.185-1.206l.621-.008c.039,0,.064-.03.064-.065,0-.035-.027-.065-.066-.065M454.252,341.892l.012,1.063-1.063.012c.024-.573.479-1.038,1.051-1.075M454.409,344.147l-.012-1.063,1.063-.012c-.024.574-.479,1.039-1.051,1.075"/>
        <g>
          <path class="cls-15" d="M459.416,342.663l.003.289-.604.007.007.604-.287.003-.007-.604-.601.007-.003-.289.601-.007-.007-.601.287-.003.007.601.604-.007Z"/>
          <path class="cls-15" d="M462.428,343.227l.003.302-.295.003.006.462-.323.004-.006-.462-1.239.014-.003-.302.853-1.676.347-.004-.852,1.676.892-.01-.008-.688.323-.004.008.688.295-.003Z"/>
          <path class="cls-15" d="M463.187,343.624l-.217.847-.261.003.13-.846.348-.004Z"/>
          <path class="cls-15" d="M465.068,343.661c-.161.231-.391.349-.687.352-.297.003-.527-.108-.695-.336-.166-.227-.252-.531-.256-.913-.005-.382.074-.688.235-.92.162-.23.391-.349.688-.352.296-.004.527.109.694.336.167.228.253.532.258.914.004.382-.075.688-.237.919ZM463.921,343.455c.108.164.261.244.458.242.196-.002.348-.086.453-.252s.157-.398.154-.699c-.004-.301-.062-.534-.171-.698s-.263-.245-.459-.243c-.197.002-.348.086-.452.252s-.154.399-.15.703c.003.301.059.533.167.695Z"/>
          <path class="cls-15" d="M467.256,343.636c-.161.231-.391.349-.687.352-.297.004-.527-.107-.695-.336-.166-.227-.252-.531-.256-.913-.005-.382.074-.688.235-.92.162-.229.391-.348.688-.352.296-.003.527.109.694.336.167.228.253.532.258.914.004.382-.075.688-.237.919ZM466.108,343.431c.108.163.261.244.458.241.196-.002.348-.086.453-.252.105-.165.157-.398.154-.699-.004-.301-.062-.533-.171-.698-.109-.164-.263-.245-.459-.243-.197.003-.348.086-.452.253-.104.165-.154.399-.15.703.003.301.059.532.167.695Z"/>
        </g>
        <path class="cls-15" d="M322.421,182.726l-.621.008c-.043-.642-.564-1.157-1.212-1.18l-.007-.625c0-.039-.031-.064-.066-.064-.035,0-.064.027-.064.066l.007.625c-.646.038-1.156.564-1.179,1.207l-.625.007c-.039,0-.064.031-.064.066,0,.035.027.065.066.064l.625-.007c.037.646.56,1.156,1.206,1.179l.008.629c0,.035.031.065.066.064.035,0,.064-.031.064-.066l-.008-.629c.647-.037,1.157-.56,1.185-1.206l.621-.008c.039,0,.064-.03.064-.065,0-.035-.027-.065-.066-.065M320.46,181.686l.012,1.063-1.063.012c.024-.573.478-1.038,1.051-1.075M320.616,183.941l-.012-1.063,1.063-.012c-.024.574-.479,1.039-1.051,1.075"/>
        <g>
          <path class="cls-15" d="M325.623,182.456l.003.289-.604.007.007.604-.288.003-.007-.604-.601.007-.003-.289.601-.007-.007-.601.288-.003.007.601.604-.007Z"/>
          <path class="cls-15" d="M328.484,183.487c-.161.231-.391.348-.687.352-.297.003-.527-.108-.695-.336-.166-.227-.252-.531-.256-.913-.005-.382.074-.688.235-.92.162-.23.391-.348.688-.352.296-.003.527.109.694.336.166.228.253.532.258.914.004.382-.075.688-.237.919ZM327.337,183.281c.108.164.261.244.458.242.196-.002.348-.086.453-.252.105-.165.157-.398.154-.699-.004-.301-.062-.533-.171-.698-.109-.164-.263-.245-.459-.243-.197.002-.348.086-.452.252-.104.166-.154.399-.15.703.003.301.059.533.167.695Z"/>
          <path class="cls-15" d="M329.468,183.417l-.217.846-.261.003.13-.845.348-.004Z"/>
          <path class="cls-15" d="M331.348,183.454c-.161.231-.391.348-.687.352-.297.003-.527-.108-.695-.336-.166-.227-.252-.531-.256-.913-.005-.382.073-.688.235-.92.162-.23.391-.348.688-.352.296-.003.527.109.694.336.167.228.253.532.258.914.004.382-.075.688-.237.919ZM330.201,183.248c.108.164.261.244.458.242.196-.002.348-.086.453-.252.105-.165.157-.398.154-.699-.004-.301-.062-.533-.171-.698-.109-.164-.263-.245-.459-.243-.197.002-.348.086-.452.252-.104.166-.154.399-.15.703.003.301.059.533.167.695Z"/>
          <path class="cls-15" d="M333.535,183.429c-.161.231-.391.349-.687.352-.297.003-.527-.108-.695-.336-.166-.227-.252-.532-.256-.914-.005-.382.074-.688.235-.919.162-.23.391-.348.688-.352.296-.003.527.109.694.335.166.228.253.533.258.915.004.382-.075.688-.237.918ZM332.387,183.223c.108.164.261.244.458.242.196-.002.348-.086.453-.252.105-.166.157-.398.154-.699-.004-.301-.062-.534-.171-.698-.109-.164-.263-.245-.459-.243-.197.002-.348.086-.452.252-.104.166-.154.399-.15.703.003.301.059.533.167.695Z"/>
        </g>
        <path class="cls-16" d="M357.843,253.952l-.004-.292,1.267-.015.004.292-1.267.015Z"/>
        <g>
          <polyline class="cls-9" points="302.372 195.569 285.247 215.894 305.571 233.018 322.696 212.694"/>
          <polygon class="cls-10" points="139.805 264.261 132.845 213.913 236.909 199.521 240.912 228.473 139.805 264.261"/>
          <polygon class="cls-10" points="135.779 216.136 141.948 260.739 238.044 226.727 234.686 202.458 135.779 216.136"/>
          <rect class="cls-10" x="127.8" y="185.325" width="165.506" height="17.575" transform="translate(-24.89 31.083) rotate(-7.973)"/>
          <line class="cls-10" x1="131.034" y1="196.377" x2="133.472" y2="213.782"/>
          <line class="cls-10" x1="134.759" y1="195.856" x2="137.197" y2="213.261"/>
          <line class="cls-10" x1="138.485" y1="195.334" x2="140.923" y2="212.739"/>
          <line class="cls-10" x1="142.21" y1="194.812" x2="144.648" y2="212.217"/>
          <line class="cls-10" x1="145.935" y1="194.29" x2="148.373" y2="211.696"/>
          <line class="cls-10" x1="149.661" y1="193.768" x2="152.099" y2="211.173"/>
          <line class="cls-10" x1="153.386" y1="193.247" x2="155.824" y2="210.651"/>
          <line class="cls-10" x1="157.111" y1="192.725" x2="159.549" y2="210.13"/>
          <line class="cls-10" x1="160.837" y1="192.203" x2="163.275" y2="209.608"/>
          <line class="cls-10" x1="164.562" y1="191.681" x2="167" y2="209.086"/>
          <line class="cls-10" x1="168.287" y1="191.159" x2="170.725" y2="208.565"/>
          <line class="cls-10" x1="172.013" y1="190.638" x2="174.451" y2="208.042"/>
          <line class="cls-10" x1="175.738" y1="190.116" x2="178.176" y2="207.521"/>
          <line class="cls-10" x1="179.463" y1="189.594" x2="181.901" y2="207"/>
          <line class="cls-10" x1="183.189" y1="189.072" x2="185.627" y2="206.477"/>
          <line class="cls-10" x1="186.914" y1="188.55" x2="189.352" y2="205.955"/>
          <line class="cls-10" x1="190.639" y1="188.029" x2="193.077" y2="205.434"/>
          <line class="cls-10" x1="194.365" y1="187.507" x2="196.803" y2="204.912"/>
          <line class="cls-10" x1="210.452" y1="185.254" x2="212.89" y2="202.658"/>
          <line class="cls-10" x1="214.178" y1="184.732" x2="216.616" y2="202.137"/>
          <line class="cls-10" x1="217.903" y1="184.21" x2="220.341" y2="201.616"/>
          <line class="cls-10" x1="221.628" y1="183.688" x2="224.066" y2="201.093"/>
          <line class="cls-10" x1="225.354" y1="183.166" x2="227.792" y2="200.571"/>
          <line class="cls-10" x1="229.079" y1="182.645" x2="231.517" y2="200.05"/>
          <line class="cls-10" x1="232.804" y1="182.123" x2="235.242" y2="199.528"/>
          <line class="cls-10" x1="236.53" y1="181.601" x2="238.968" y2="199.006"/>
          <line class="cls-10" x1="240.255" y1="181.079" x2="242.693" y2="198.485"/>
          <line class="cls-10" x1="243.98" y1="180.557" x2="246.418" y2="197.962"/>
          <line class="cls-10" x1="247.706" y1="180.036" x2="250.144" y2="197.44"/>
          <line class="cls-10" x1="251.431" y1="179.514" x2="253.869" y2="196.919"/>
          <line class="cls-10" x1="255.156" y1="178.992" x2="257.594" y2="196.397"/>
          <line class="cls-10" x1="258.882" y1="178.47" x2="261.32" y2="195.875"/>
          <line class="cls-10" x1="262.607" y1="177.948" x2="265.045" y2="195.354"/>
          <line class="cls-10" x1="266.332" y1="177.427" x2="268.77" y2="194.831"/>
          <line class="cls-10" x1="270.058" y1="176.905" x2="272.496" y2="194.31"/>
          <line class="cls-10" x1="273.783" y1="176.383" x2="276.221" y2="193.789"/>
          <rect class="cls-10" x="312.659" y="259.197" width="69.991" height="17.575" transform="translate(4.326 541.489) rotate(-76.168)"/>
          <line class="cls-10" x1="331.695" y1="296.048" x2="348.759" y2="300.25"/>
          <line class="cls-10" x1="332.418" y1="293.111" x2="349.483" y2="297.313"/>
          <line class="cls-10" x1="333.141" y1="290.174" x2="350.206" y2="294.377"/>
          <line class="cls-10" x1="333.864" y1="287.237" x2="350.929" y2="291.44"/>
          <line class="cls-10" x1="334.587" y1="284.301" x2="351.652" y2="288.503"/>
          <line class="cls-10" x1="335.31" y1="281.364" x2="352.375" y2="285.566"/>
          <line class="cls-10" x1="336.033" y1="278.427" x2="353.099" y2="282.629"/>
          <line class="cls-10" x1="336.756" y1="275.49" x2="353.822" y2="279.692"/>
          <line class="cls-10" x1="337.479" y1="272.553" x2="354.545" y2="276.756"/>
          <line class="cls-10" x1="338.203" y1="269.616" x2="355.268" y2="273.819"/>
          <line class="cls-10" x1="338.926" y1="266.679" x2="355.99" y2="270.882"/>
          <line class="cls-10" x1="339.649" y1="263.743" x2="356.714" y2="267.945"/>
          <line class="cls-10" x1="340.372" y1="260.806" x2="357.436" y2="265.008"/>
          <line class="cls-10" x1="341.095" y1="257.869" x2="358.16" y2="262.071"/>
          <line class="cls-10" x1="341.818" y1="254.932" x2="358.884" y2="259.134"/>
          <line class="cls-10" x1="342.541" y1="251.995" x2="359.607" y2="256.197"/>
          <line class="cls-10" x1="343.264" y1="249.058" x2="360.33" y2="253.261"/>
          <line class="cls-10" x1="343.987" y1="246.121" x2="361.052" y2="250.324"/>
          <polyline class="cls-6" points="193.206 205.248 195.589 196.686 128.706 206.348"/>
          <line class="cls-6" x1="190.769" y1="188.206" x2="195.589" y2="196.686"/>
          <polyline class="cls-6" points="272.752 193.76 275.008 185.653 211.681 194.801"/>
          <line class="cls-6" x1="270.188" y1="177.173" x2="275.009" y2="185.654"/>
          <polyline class="cls-6" points="343.284 248.989 352.176 248.226 338.781 301.772"/>
          <line class="cls-6" x1="352.176" y1="248.226" x2="360.322" y2="253.29"/>
          <path class="cls-5" d="M26.442,203.07c2.257,23.038,9.112,81.142,24.272,126.241,13.657,40.625,54.272,94.649,70.007,114.674"/>
          <path class="cls-5" d="M469.984,446.913c5.436-4.555,16.375-14.15,28.563-27.236,15.773-16.935,36.948-43.368,48.252-73.125,23.238-61.18,6.046-146.518,1.205-167.578"/>
          <path class="cls-5" d="M113.876,73.027c-.641.662-53.883,56.247-64.557,112.59-.664,3.512-3.716,5.968-7.158,6.007-.483.006-.974-.036-1.467-.129"/>
          <path class="cls-5" d="M425.81,57.594c-.793.292-1.632.445-2.475.456-1.554.017-3.125-.453-4.47-1.449-39.598-29.311-104.864-30.335-105.518-30.342-1.078-.011-2.099-.253-3.017-.679"/>
          <path class="cls-5" d="M529.554,172.039c-.255.03-.509.045-.761.048-3.738.043-6.975-2.749-7.408-6.544-.017-.144-2.011-16.222-12.195-37.11-9.342-19.159-27.726-46.464-62.258-67.738"/>
          <path class="cls-5" d="M139.514,442.615c.943-1.162,2.249-2.048,3.804-2.467,15.79-4.258,43.194-7.486,53.545-5.11"/>
          <path class="cls-5" d="M223.564,428.102c21.739-8.86,47.308-10.807,65.141-4.957"/>
          <path class="cls-5" d="M312.688,422.695c23.916-2.501,46.347.11,58.942,7.018"/>
          <path class="cls-5" d="M395.32,432.551c23.952-1.004,41.623,2.009,54.02,9.214"/>
          <path class="cls-5" d="M139.8,67.613c1.206-.014,2.426-.324,3.549-.961,29.475-16.713,78.164-37.264,142.732-40.258"/>
        </g>
        <g>
          <g class="cls-20">
            <g class="cls-23">
              <g class="cls-22">
                <path class="cls-11" d="M397.053,391.554c1.139,5.13,1.718,9.792,1.746,10.001l-3.45.426c-.005-.056-.679-5.491-1.965-10.905-2.338-9.816-4.391-10.157-4.412-10.161-.017-.004-2.193-.131-7.21,8.571-2.749,4.761-4.893,9.651-4.914,9.699l-3.18-1.387c.081-.183,1.768-4.031,4.119-8.319.31-.572.634-1.148.969-1.73,5.575-9.663,8.724-10.498,10.61-10.285,3.09.351,5.375,4.308,7.399,12.834.101.42.196.839.288,1.255Z"/>
                <path class="cls-11" d="M434.565,105.954c-2.369,2.692-4.055,3.284-5.279,3.298-.182.002-.352-.009-.513-.029-2.785-.315-4.914-3.559-6.794-10.433-.204-.758-.408-1.558-.608-2.401-1.331-5.601-2.006-11.031-2.03-11.257l3.446-.425c.004.056.679,5.49,1.969,10.905,2.334,9.816,4.386,10.161,4.408,10.16.017.004,2.189.128,7.197-8.549,2.749-4.762,4.906-9.674,4.927-9.721l3.184,1.391c-.094.206-2.246,5.116-5.089,10.044-1.864,3.229-3.453,5.469-4.819,7.016Z"/>
                <path class="cls-11" d="M479.315,417.462c1.319,6.056,1.365,12.361,1.362,13.59l-3.472-.012c.023-7.769-1.665-20.626-6.281-22.061-4.338-1.348-12.779,8.461-17.386,15.862l-2.95-1.837c.621-1.001,3.657-5.761,7.605-10.086,4.162-4.561,9.34-8.629,13.761-7.253,4.019,1.252,6.192,6.426,7.361,11.798Z"/>
                <path class="cls-11" d="M538.215,209.373c-2.815,2.498-5.852,4.351-8.699,4.383-.642.008-1.277-.081-1.895-.273-4.543-1.415-6.721-7.834-7.771-13.889-.92-5.35-.956-10.414-.956-11.499l3.472.013c-.02,7.763,1.668,20.625,6.289,22.06,4.33,1.348,12.775-8.461,17.382-15.861l2.95,1.836c-.779,1.255-5.363,8.433-10.771,13.229Z"/>
                <path class="cls-11" d="M434.565,105.954c12.422,21.349,22.944,56.055,85.285,93.64h.004"/>
                <path class="cls-11" d="M538.215,209.373c6.477,36.988,18.217,85.251,6.031,128.457-12.19,43.207-64.932,79.631-64.932,79.631"/>
                <path class="cls-11" d="M458.193,412.917c-14.392-14.569-43.245-24.137-61.141-21.363"/>
                <path class="cls-11" d="M322.02,331.039c21.909,10.43,39.796,28.847,55.767,58.439"/>
                <path class="cls-11" d="M421.98,98.79s-29.863,22.306-25.829,71.442c3.888,47.403-.751,101.273-17.873,121.996-17.122,20.724-29.673,10.769-48.624,7.487"/>
              </g>
            </g>
          </g>
          <path class="cls-15" d="M432.21,92.4c-.191.003-.377-.011-.556-.037-2.561-.363-5.424-3.247-7.233-21.881-.956-9.846-1.163-19.714-1.165-19.812l3.471-.069c.003.093.197,9.41,1.087,18.898,1.599,17.045,3.97,19.186,4.326,19.415.404-.128,3.254-1.569,9.296-17.568,3.364-8.905,6.012-17.83,6.039-17.919l3.328.984c-.028.095-2.84,9.569-6.368,18.815-6.214,16.283-9.701,19.146-12.226,19.174"/>
          <path class="cls-15" d="M392.158,439.994c-.002-.093-.197-9.41-1.087-18.897-1.6-17.045-3.971-19.187-4.326-19.415-.404.127-3.256,1.57-9.302,17.584-3.363,8.905-6.007,17.814-6.033,17.903l-3.329-.985c.028-.095,2.84-9.569,6.369-18.815,6.682-17.512,10.207-19.499,12.782-19.137,2.56.363,5.423,3.247,7.233,21.881.956,9.846,1.162,19.714,1.164,19.812l-3.471.069Z"/>
          <path class="cls-15" d="M534.407,195.929c-.412.005-.811-.052-1.198-.17-2.114-.645-4.943-3.102-5.09-16.933-.076-7.092.57-13.837.598-14.12l3.455.335c-.006.069-.657,6.865-.581,13.772.139,12.719,2.53,13.594,2.631,13.625.099.031,2.559.634,9.637-9.948,3.841-5.743,7.007-11.78,7.04-11.84l3.077,1.608c-.133.253-3.286,6.264-7.231,12.162-5.19,7.758-9.156,11.472-12.337,11.508"/>
          <path class="cls-15" d="M470.89,455.699l-3.455-.336c.006-.068.657-6.864.582-13.771-.14-12.72-2.53-13.594-2.631-13.625-.101-.033-2.559-.634-9.637,9.947-3.842,5.744-7.008,11.78-7.039,11.841l-3.077-1.608c.132-.253,3.285-6.265,7.23-12.162,5.863-8.764,10.161-12.368,13.536-11.338,2.114.645,4.942,3.102,5.09,16.933.075,7.092-.57,13.836-.598,14.12"/>
          <path class="cls-15" d="M310.646,430.444c-.012-.094-1.186-9.454-3.245-18.718-3.865-17.387-7.094-17.737-7.23-17.743-.041-.002-3.23.05-7.075,17.566-2.06,9.385-3.235,18.933-3.246,19.029l-3.446-.42c.012-.097,1.206-9.81,3.301-19.353,4.004-18.238,7.787-20.422,10.629-20.29,2.782.131,6.484,2.577,10.46,20.48,2.093,9.423,3.284,18.926,3.296,19.022l-3.445.428Z"/>
          <path class="cls-15" d="M299.779,58.528c-.095.002-.19,0-.284-.005-2.782-.131-6.484-2.577-10.46-20.48-2.093-9.423-3.284-18.926-3.296-19.022l3.445-.428c.012.094,1.186,9.454,3.245,18.718,3.864,17.387,7.094,17.737,7.23,17.744h.002c.089-.002,3.264-.215,7.073-17.567,2.06-9.385,3.235-18.933,3.246-19.029l3.446.42c-.012.097-1.206,9.81-3.301,19.353-3.873,17.639-7.535,20.263-10.345,20.295"/>
          <path class="cls-15" d="M195.212,442.23c-.009-.102-.866-10.422-.717-20.876.285-19.978,3.921-23.267,6.631-24.003,2.756-.749,7.472.34,16.609,18.336,4.761,9.378,8.577,19.152,8.615,19.249l-3.236,1.258c-.037-.095-3.799-9.729-8.485-18.955-8.658-17.046-12.217-16.641-12.593-16.539-.388.105-3.794,1.58-4.07,20.679-.148,10.286.696,20.456.704,20.559l-3.459.291Z"/>
          <path class="cls-15" d="M132.644,105.276c-2.874.033-7.482-2.791-15.459-18.501-4.76-9.378-8.577-19.152-8.614-19.249l3.235-1.258c.037.095,3.8,9.73,8.485,18.955,8.657,17.046,12.216,16.64,12.593,16.539.388-.106,3.796-1.581,4.07-20.702.147-10.285-.697-20.435-.705-20.536l3.459-.291c.01.103.866,10.422.717,20.876-.285,19.978-3.921,23.267-6.631,24.003-.35.095-.732.161-1.15.165"/>
          <path class="cls-15" d="M41.022,220.582c-3.358.039-7.76-4.059-13.95-12.899-4.772-6.814-8.846-14.052-8.886-14.124l3.027-1.699c.04.071,4.04,7.176,8.715,13.85,8.627,12.315,11.198,11.376,11.221,11.365.106-.047,2.572-1.311.528-16.16-1.1-7.992-2.966-15.782-2.985-15.86l3.375-.812c.019.08,1.92,8.015,3.045,16.177,2.156,15.634-.24,18.813-2.568,19.834-.483.213-.99.323-1.523.329"/>
          <path class="cls-15" d="M121.357,456.589c-.019-.079-1.92-8.015-3.045-16.176-2.157-15.635.24-18.813,2.567-19.835,3.53-1.549,8.301,2.328,15.473,12.571,4.772,6.814,8.846,14.051,8.886,14.124l-3.027,1.699c-.04-.071-4.04-7.177-8.715-13.85-8.627-12.316-11.197-11.374-11.221-11.365-.107.046-2.574,1.311-.524,16.182,1.102,7.992,2.962,15.76,2.981,15.837l-3.375.812Z"/>
          <path class="cls-5" d="M26.442,203.07c2.257,23.038,9.112,81.142,24.272,126.241,13.657,40.625,54.272,94.649,70.007,114.674"/>
          <path class="cls-5" d="M121.357,456.589s-59.999-72.452-77.639-124.928c-19.786-58.856-25.534-138.102-25.534-138.102"/>
          <path class="cls-5" d="M469.984,446.913c5.436-4.555,16.375-14.15,28.563-27.236,15.773-16.935,36.948-43.368,48.252-73.125,23.238-61.18,6.046-146.518,1.205-167.578"/>
          <path class="cls-5" d="M470.89,455.699s60.041-46.586,82.809-106.526c27.706-72.942.277-176.914.277-176.914"/>
          <path class="cls-5" d="M113.876,73.027c-.641.662-53.883,56.247-64.557,112.59-.664,3.512-3.716,5.968-7.158,6.007-.483.006-.974-.036-1.467-.129"/>
          <path class="cls-5" d="M108.575,67.891s-55.271,57.034-66.508,116.352"/>
          <path class="cls-5" d="M425.81,57.594c-.793.292-1.632.445-2.475.456-1.554.017-3.125-.453-4.47-1.449-39.598-29.311-104.864-30.335-105.518-30.342-1.078-.011-2.099-.253-3.017-.679"/>
          <path class="cls-5" d="M313.425,18.879s67.853.717,109.831,31.79"/>
          <path class="cls-5" d="M529.554,172.039c-.255.03-.509.045-.761.048-3.738.043-6.975-2.749-7.408-6.544-.017-.144-2.011-16.222-12.195-37.11-9.342-19.159-27.726-46.464-62.258-67.738"/>
          <path class="cls-5" d="M450.804,54.41c70.27,43.293,77.914,110.296,77.914,110.296"/>
          <path class="cls-5" d="M139.514,442.615c.943-1.162,2.249-2.048,3.804-2.467,15.79-4.258,43.194-7.486,53.545-5.11"/>
          <path class="cls-5" d="M145.24,447.273c16.546-4.461,41.94-6.886,49.973-5.042"/>
          <path class="cls-5" d="M223.564,428.102c21.739-8.86,47.308-10.807,65.141-4.957"/>
          <path class="cls-5" d="M226.35,434.937c19.23-7.839,43.279-10.282,60.054-4.779"/>
          <path class="cls-5" d="M312.688,422.695c23.916-2.501,46.347.11,58.942,7.018"/>
          <path class="cls-5" d="M314.091,430.015c21.113-2.207,42.105-.349,53.99,6.169"/>
          <path class="cls-5" d="M395.32,432.551c23.952-1.004,41.623,2.009,54.02,9.214"/>
          <path class="cls-5" d="M138.903,67.623l.016,1.399.177,15.476-2.684,16.233-4.2,2.94-4.734-4.575-10.575-16.124-3.027-9.947c-.64.663-53.883,56.247-64.556,112.59-.666,3.512-3.717,5.968-7.159,6.008-.483.006-.974-.036-1.466-.13l1.496,3.476,2.135,14.297-.509,6.012-2.8,4.297-7.204-6.283-7.37-10.223c2.257,23.038,9.113,81.143,24.272,126.241,13.657,40.625,54.272,94.648,70.006,114.673l-1.114-14.692.081-5.636,3.301-2.227,4.963,3.855,10.274,12.949,1.288,4.381c.943-1.161,2.249-2.047,3.804-2.467,15.789-4.258,43.194-7.487,53.546-5.111l-.811-12.688.503-14.182,2.027-6.1,2.928-3.344,2.972,1.83,4.827,4.72,11.219,19.689,3.034,3.141c21.74-8.861,47.308-10.807,65.141-4.957l2.594-8.106,1.618-13.015,3.459-7.151,2.546-1.91,2.52.261,3.236,2.79,3.769,13.332,2.363,12.631,1.876.719c23.916-2.501,46.347.11,58.942,7.017l4.077-8.478,2.314-11.094,4.86-6.565,3.356-3.311,2.558,1.789,3.923,14.14.14,12.216,2.461,4.143c23.952-1.005,41.623,2.009,54.021,9.214l2.546-.03,5.424-8.709,4.976-5.414,3.579-1.215,2.516,2.96,2.325,9.609-.722,7.946c5.436-4.555,16.376-14.149,28.564-27.235,15.773-16.935,36.948-43.368,48.251-73.125,23.239-61.18,6.046-146.518,1.205-167.579l-3.448,4.9-4.978,7.429-3.012,2.204-2.614-.212-4.424-4.225,1.331-13.869-1.304-3.162c-.255.029-.509.045-.761.048-3.737.043-6.975-2.75-7.408-6.544-.017-.144-2.011-16.221-12.195-37.11-9.342-19.159-27.726-46.464-62.258-67.738l-2.68,9.174-3.459,9.298-5.244,9.463-3.6,2.211-2.373-2.867-2.778-9.805-.988-20.573c-.793.292-1.632.445-2.475.455-1.554.018-3.125-.452-4.47-1.449-39.598-29.311-104.864-30.334-105.518-30.341-1.078-.012-2.099-.253-3.018-.679l-1.082,11.257-4.328,13.648-3.105,4.606-2.237,1.963-5.942-6.729-3.368-14.659-2.006-8.57.326-1.267"/>
          <path class="cls-5" d="M395.629,439.925c25.087-1.053,40.137,2.487,50.002,8.222"/>
          <path class="cls-5" d="M139.8,67.613c1.206-.014,2.426-.324,3.549-.961,29.475-16.713,78.164-37.264,142.732-40.258,1.14-.053,2.208-.362,3.15-.869"/>
          <path class="cls-5" d="M139.709,60.231c38.352-21.746,88.183-38.528,146.03-41.21"/>
        </g>
        <g>
          <g class="cls-19">
            <g class="cls-21">
              <g class="cls-24">
                <path class="cls-17" d="M533.94,193.877l2.125-.371-2.613-.212-4.425-4.226,1.33-13.869-1.303-3.161c-.255.03-.509.045-.761.047-3.738.043-6.975-2.75-7.408-6.543-.017-.145-2.011-16.222-12.195-37.11-9.342-19.16-27.726-46.464-62.258-67.738l-2.68,9.174-3.459,9.298-5.244,9.463-3.601,2.211-2.373-2.866-2.777-9.805-.989-20.573c-.793.292-1.632.445-2.475.455-1.553.017-3.124-.453-4.47-1.448-39.598-29.312-104.863-30.335-105.518-30.342-1.077-.011-2.099-.253-3.017-.678l-1.082,11.257-4.328,13.648-3.105,4.606-2.237,1.962-5.942-6.729-3.368-14.658-2.006-8.57.326-1.267-2.506.563c-64.568,2.994-113.256,23.545-142.732,40.257-1.124.637-2.343.948-3.55.962l-.897.01.016,1.399.178,15.476-2.685,16.232-4.2,2.941-4.734-4.575-10.575-16.124-3.027-9.947c-.64.662-53.883,56.247-64.556,112.59-.666,3.511-3.717,5.968-7.159,6.008-.483.005-.974-.036-1.466-.13l1.496,3.476,2.135,14.297-.509,6.012-2.8,4.297-7.204-6.283-7.37-10.223c2.257,23.038,9.113,81.143,24.272,126.241,13.657,40.625,54.272,94.648,70.006,114.673l-1.114-14.692.081-5.636,3.301-2.228,4.963,3.855,10.274,12.949,1.288,4.383c.944-1.162,2.249-2.049,3.804-2.468,15.789-4.258,43.194-7.486,53.546-5.11l-.811-12.689.503-14.182,2.027-6.099,2.928-3.344,2.971,1.83,4.828,4.718,11.219,19.69,3.034,3.141c21.739-8.861,47.308-10.808,65.141-4.958l2.594-8.106,1.618-13.014,3.459-7.151,2.546-1.91,2.52.261,3.236,2.79,3.769,13.331,2.363,12.632,1.876.718c23.916-2.501,46.347.11,58.942,7.018l4.077-8.478,2.315-11.094,4.86-6.565,3.356-3.312,2.558,1.79,3.923,14.139.14,12.216,2.461,4.143c23.952-1.004,41.623,2.009,54.02,9.215l2.546-.03,5.423-8.709,4.976-5.414,3.58-1.214,2.516,2.959s7.581-8.86,19.77-21.946c15.772-16.935,34.292-34.045,45.596-63.803,23.238-61.179,5.535-128.672.694-149.732M329.972,303.175l-6.386,26.93-2.451,7.597-214.852,45.427-50.371-128.456,41.267-34.09,200.934-28.542,5.882,4.337-3.456,1.366-15.091,16.551,18.799,17.609,18.449-19.209,23.398,19.592-16.122,70.889Z"/>
              </g>
            </g>
          </g>
          <path class="cls-1" d="M121.176,421.141c39.568-14.895,81.788-24.743,125.952-28.698,117.085-10.486,228.079,22.215,317.238,84.945"/>
          <path class="cls-1" d="M18.77,363.146c51.515-74.591,138.237-128.39,239.861-137.49,123.498-11.06,237.452,44.187,302.66,133.484l4.054,4.994"/>
          <path class="cls-1" d="M42.847,221.217c38.366-87.955,123.487-153.053,227.289-162.349,128.46-11.505,243.949,66.175,283.014,181.051l11.993,30.219"/>
          <line class="cls-1" x1="165.379" y1="533.963" x2="22.105" y2="168.273"/>
          <line class="cls-1" x1="117.491" y1="34.788" x2="233.147" y2="535.75"/>
          <line class="cls-1" x1="299.463" y1=".334" x2="300.54" y2="534.257"/>
          <line class="cls-1" x1="438.614" y1="44.376" x2="367.531" y2="533.964"/>
          <line class="cls-1" x1="434.579" y1="533.509" x2="546.421" y2="150.6"/>
          <polygon class="cls-15" points="105.474 384.633 54.356 254.299 97.175 218.905 97.54 218.854 298.506 190.67 305.514 196.548 303.841 198.544 297.72 193.41 98.267 221.382 57.469 255.104 107.091 381.624 319.426 336.173 321.056 329.488 323.586 330.105 321.569 338.377 320.771 338.548 105.474 384.633"/>
          <polygon class="cls-15" points="330.081 303.466 327.551 302.849 344.638 232.763 319.105 211.347 320.777 209.351 347.551 231.808 330.081 303.466"/>
          <path class="cls-18" d="M180.131,533.673c.093,8.148-6.436,14.829-14.584,14.922-8.148.093-14.828-6.436-14.922-14.584-.093-8.147,6.436-14.828,14.584-14.921,8.148-.094,14.828,6.435,14.922,14.583"/>
          <path class="cls-14" d="M180.131,533.673c.093,8.148-6.436,14.829-14.584,14.922-8.148.093-14.828-6.436-14.922-14.584-.093-8.147,6.436-14.828,14.584-14.921,8.148-.094,14.828,6.435,14.922,14.583Z"/>
        </g>
        <path class="cls-16" d="M168.809,539.438l-.946-2.51-5.054.058-.889,2.531-1.59.019,4.062-11.287,1.686-.019,4.318,11.19-1.588.018ZM163.302,535.583l4.037-.046-2.082-5.524-1.955,5.57Z"/>
        <g>
          <path class="cls-18" d="M247.468,533.673c.093,8.148-6.436,14.829-14.584,14.922-8.148.093-14.828-6.436-14.922-14.584-.093-8.147,6.436-14.828,14.584-14.921,8.148-.094,14.828,6.435,14.922,14.583"/>
          <path class="cls-14" d="M247.468,533.673c.093,8.148-6.436,14.829-14.584,14.922-8.148.093-14.828-6.436-14.922-14.584-.093-8.147,6.436-14.828,14.584-14.921,8.148-.094,14.828,6.435,14.922,14.583Z"/>
        </g>
        <path class="cls-16" d="M235.47,533.621c.517.24.93.589,1.24,1.045.311.457.469.984.476,1.584.011.898-.296,1.657-.921,2.274-.625.618-1.392.932-2.301.941l-4.849.056-.129-11.238,4.496-.052c.877-.01,1.623.276,2.24.857.617.582.931,1.307.94,2.173.012.996-.387,1.782-1.193,2.359ZM233.499,529.628l-3.003.035.04,3.437,3.003-.035c.471-.005.865-.176,1.181-.512.317-.334.474-.743.468-1.225-.005-.472-.174-.873-.504-1.207-.329-.334-.725-.498-1.185-.493ZM233.948,538.07c.503-.006.923-.188,1.262-.545s.505-.793.499-1.307c-.006-.503-.185-.929-.536-1.277s-.773-.521-1.266-.516l-3.355.039.041,3.645,3.355-.039Z"/>
        <g>
          <path class="cls-18" d="M314.804,533.673c.093,8.148-6.436,14.829-14.584,14.922-8.148.093-14.828-6.436-14.922-14.584-.093-8.147,6.436-14.828,14.584-14.921,8.148-.094,14.828,6.435,14.922,14.583"/>
          <path class="cls-14" d="M314.804,533.673c.093,8.148-6.436,14.829-14.584,14.922-8.148.093-14.828-6.436-14.922-14.584-.093-8.147,6.436-14.828,14.584-14.921,8.148-.094,14.828,6.435,14.922,14.583Z"/>
        </g>
        <path class="cls-16" d="M300.373,539.671c-1.701.02-3.113-.526-4.234-1.638-1.12-1.11-1.689-2.485-1.708-4.122-.02-1.638.519-3.024,1.613-4.161,1.096-1.137,2.494-1.716,4.195-1.735,1.028-.012,1.976.225,2.843.707s1.547,1.138,2.038,1.968l-1.292.77c-.328-.616-.813-1.107-1.454-1.469-.642-.362-1.348-.539-2.118-.53-1.295.016-2.347.445-3.156,1.289-.809.844-1.207,1.893-1.192,3.146.014,1.24.436,2.273,1.264,3.1.829.825,1.891,1.231,3.186,1.216.771-.009,1.473-.202,2.104-.578.633-.377,1.106-.871,1.421-1.485l1.31.724c-.463.84-1.124,1.515-1.985,2.021-.86.508-1.805.768-2.833.779Z"/>
        <g>
          <path class="cls-18" d="M382.141,533.673c.093,8.148-6.436,14.829-14.584,14.922-8.148.093-14.828-6.436-14.922-14.584-.093-8.147,6.436-14.828,14.584-14.921,8.148-.094,14.828,6.435,14.922,14.583"/>
          <path class="cls-14" d="M382.141,533.673c.093,8.148-6.436,14.829-14.584,14.922-8.148.093-14.828-6.436-14.922-14.584-.093-8.147,6.436-14.828,14.584-14.921,8.148-.094,14.828,6.435,14.922,14.583Z"/>
        </g>
        <path class="cls-16" d="M367.486,528.235c1.529-.018,2.807.511,3.83,1.586,1.024,1.074,1.545,2.399,1.563,3.973.018,1.573-.473,2.908-1.473,4.006-.998,1.099-2.263,1.656-3.792,1.674l-4.384.05-.129-11.238,4.384-.05ZM367.598,538.06c1.145-.013,2.075-.425,2.795-1.236.718-.811,1.071-1.816,1.058-3.015s-.39-2.194-1.126-2.989c-.738-.794-1.679-1.185-2.823-1.172l-2.891.033.097,8.412,2.891-.033Z"/>
        <g>
          <path class="cls-18" d="M449.477,533.673c.093,8.148-6.436,14.829-14.584,14.922-8.148.093-14.828-6.436-14.922-14.584-.093-8.147,6.436-14.828,14.584-14.921,8.148-.094,14.828,6.435,14.922,14.583"/>
          <path class="cls-14" d="M449.477,533.673c.093,8.148-6.436,14.829-14.584,14.922-8.148.093-14.828-6.436-14.922-14.584-.093-8.147,6.436-14.828,14.584-14.921,8.148-.094,14.828,6.435,14.922,14.583Z"/>
        </g>
        <path class="cls-16" d="M432.888,538.084l5.219-.06.017,1.413-6.712.077-.129-11.238,6.631-.076.016,1.413-5.138.059.04,3.451,4.736-.054.016,1.396-4.736.054.041,3.564Z"/>
        <g>
          <path class="cls-18" d="M579.106,260.569c.093,8.148-6.436,14.829-14.584,14.922-8.148.093-14.828-6.436-14.922-14.584-.093-8.147,6.436-14.828,14.584-14.921,8.148-.094,14.828,6.435,14.922,14.583"/>
          <path class="cls-14" d="M579.106,260.569c.093,8.148-6.436,14.829-14.584,14.922-8.148.093-14.828-6.436-14.922-14.584-.093-8.147,6.436-14.828,14.584-14.921,8.148-.094,14.828,6.435,14.922,14.583Z"/>
        </g>
        <path class="cls-16" d="M565.261,259.578c.859.151,1.565.513,2.119,1.085.554.572.835,1.303.846,2.192.013,1.092-.353,1.958-1.095,2.598-.742.641-1.648.966-2.719.979-.856.01-1.618-.177-2.287-.56-.668-.383-1.146-.943-1.433-1.678l1.245-.753c.343,1.035,1.163,1.544,2.458,1.53.695-.008,1.261-.197,1.696-.565.434-.369.647-.88.641-1.533-.008-.652-.233-1.162-.676-1.526-.443-.364-1.014-.542-1.709-.534l-.386.004-.604-.908,2.56-3.546-4.993.057-.016-1.396,6.744-.077.006,1.311-2.398,3.322Z"/>
        <g>
          <path class="cls-18" d="M579.106,365.931c.093,8.148-6.436,14.829-14.584,14.922-8.148.093-14.828-6.436-14.922-14.584-.093-8.147,6.436-14.828,14.584-14.921,8.148-.094,14.828,6.435,14.922,14.583"/>
          <path class="cls-14" d="M579.106,365.931c.093,8.148-6.436,14.829-14.584,14.922-8.148.093-14.828-6.436-14.922-14.584-.093-8.147,6.436-14.828,14.584-14.921,8.148-.094,14.828,6.435,14.922,14.583Z"/>
        </g>
        <path class="cls-16" d="M560.893,372.064l-.014-1.221,3.918-4.091c1.048-1.071,1.567-1.986,1.559-2.747-.007-.631-.206-1.122-.595-1.47-.39-.35-.862-.521-1.419-.515-1.06.013-1.824.524-2.296,1.536l-1.259-.725c.345-.731.827-1.288,1.448-1.67.622-.383,1.313-.578,2.073-.587.942-.011,1.764.291,2.468.904.702.612,1.061,1.443,1.072,2.492.013,1.135-.642,2.38-1.964,3.733l-2.834,2.888,5.081-.058.017,1.445-7.256.083Z"/>
        <g>
          <path class="cls-18" d="M579.106,471.293c.093,8.148-6.436,14.828-14.584,14.922-8.148.093-14.828-6.436-14.922-14.584-.093-8.147,6.436-14.828,14.584-14.921,8.148-.094,14.828,6.435,14.922,14.583"/>
          <path class="cls-14" d="M579.106,471.293c.093,8.148-6.436,14.828-14.584,14.922-8.148.093-14.828-6.436-14.922-14.584-.093-8.147,6.436-14.828,14.584-14.921,8.148-.094,14.828,6.435,14.922,14.583Z"/>
        </g>
        <path class="cls-16" d="M564.355,465.703l1.285-.015.129,11.238-1.478.017-.11-9.633-2.384.734-.384-1.28,2.941-1.062Z"/>
        <g>
          <path class="cls-2" d="M475.093,260.645l20.097,7.352c1.887-4.428,2.907-9.311,2.848-14.432-.227-19.772-16.437-35.615-36.208-35.389-10.608.121-20.086,4.845-26.557,12.25l15.442,15.931"/>
          <polyline class="cls-3" points="439.739 226.127 462.24 253.973 446.628 221.748"/>
          <polyline class="cls-3" points="454.545 219.004 462.24 253.974 462.638 218.176"/>
          <polyline class="cls-3" points="470.475 219.124 462.313 253.991 477.999 221.82"/>
          <polyline class="cls-3" points="484.734 226.12 462.312 253.991 490.639 232.171"/>
          <line class="cls-3" x1="462.313" y1="253.991" x2="494.383" y2="238.191"/>
          <polyline class="cls-3" points="497.109 245.825 462.316 254.245 498.038 253.564"/>
          <line class="cls-3" x1="497.342" y1="261.052" x2="462.315" y2="254.245"/>
          <path class="cls-6" d="M477.318,257.161l8.662,6.984c1.359-3.188,2.093-6.703,2.051-10.39-.163-14.233-11.833-25.638-26.064-25.474-7.637.087-14.459,3.487-19.118,8.818"/>
          <line class="cls-6" x1="485.98" y1="264.144" x2="497.341" y2="261.052"/>
          <path class="cls-18" d="M476.053,253.815c.087,7.629-6.027,13.884-13.655,13.971-7.629.088-13.884-6.026-13.971-13.655-.088-7.629,6.026-13.885,13.655-13.971,7.629-.088,13.884,6.026,13.971,13.655"/>
          <path class="cls-7" d="M476.053,253.815c.087,7.629-6.027,13.884-13.655,13.971-7.629.088-13.884-6.026-13.971-13.655-.088-7.629,6.026-13.885,13.655-13.971,7.629-.088,13.884,6.026,13.971,13.655Z"/>
          <line class="cls-13" x1="329.972" y1="303.175" x2="323.265" y2="330.622"/>
          <path class="cls-13" d="M326.684,316.666c.949.231,1.941.353,2.962.353,5.88,0,10.811-4.062,12.14-9.532l-12.14-2.96"/>
          <path class="cls-13" d="M326.684,316.666c.949.233,1.886.581,2.792,1.051,5.22,2.707,7.726,8.584,6.387,14.051l-12.138-2.962"/>
          <path class="cls-13" d="M526.655,356.813c.857.47,1.783.846,2.769,1.112,5.678,1.527,11.494-1.114,14.2-6.051l-10.953-6.013"/>
          <path class="cls-13" d="M526.655,356.813c.856.471,1.671,1.051,2.423,1.74,4.336,3.971,5.23,10.296,2.515,15.229l-11.243-6.212"/>
          <path class="cls-13" d="M542.783,305.848c.969.12,1.969.127,2.984.009,5.839-.68,10.267-5.286,10.954-10.874l-12.401-1.534"/>
          <path class="cls-13" d="M542.783,305.848c.969.121,1.941.358,2.895.72,5.497,2.085,8.667,7.631,7.97,13.218l-12.743-1.613"/>
          <path class="cls-13" d="M537.073,332.199c.939.269,1.926.431,2.946.472,5.875.237,10.965-3.623,12.513-9.037l-12.011-3.446"/>
          <path class="cls-13" d="M537.073,332.199c.939.271,1.862.656,2.748,1.162,5.106,2.915,7.375,8.887,5.817,14.297l-12.338-3.576"/>
          <path class="cls-18" d="M538.215,209.373l-1.212.213c6.309,36.026,12.006,78.122-.325,121.847-11.954,42.368-57.733,84.7-58.194,85.122l.831.907s46.357-42.486,58.547-85.693c12.186-43.207,6.83-85.407.353-122.395"/>
          <path class="cls-12" d="M538.215,209.373l-1.212.213c6.309,36.026,12.006,78.122-.325,121.847-11.954,42.368-57.733,84.7-58.194,85.122l.831.907s46.357-42.486,58.547-85.693c12.186-43.207,6.83-85.407.353-122.395Z"/>
          <rect class="cls-16" x="539.625" y="319.007" width="1.163" height="1.34" transform="translate(104.631 771.662) rotate(-76.675)"/>
          <rect class="cls-16" x="532.145" y="343.724" width="1.162" height="1.34" transform="translate(24.813 724.433) rotate(-69.687)"/>
          <rect class="cls-16" x="539.807" y="317.901" width="1.162" height="1.34" transform="translate(121.372 785.404) rotate(-78.61)"/>
          <rect class="cls-16" x="531.804" y="344.502" width="1.162" height="1.34" transform="translate(-16.844 662.859) rotate(-63.004)"/>
          <rect class="cls-16" x="519.516" y="367.089" width="1.162" height="1.34" transform="translate(-79.495 582.787) rotate(-54.993)"/>
        </g>
        <polygon class="cls-16" points="584.5 325.24 601.253 324.838 601.818 330.862 597.822 335.406 584.5 325.24"/>
      </g>
    </g>
  </g>
</svg>